<?xml version="1.0" encoding="UTF-8" standalone="no"?>
<!-- Created with Inkscape (http://www.inkscape.org/) -->

<svg
   width="512"
   height="512"
   viewBox="0 0 135.46666 135.46667"
   version="1.1"
   id="svg5"
   inkscape:export-filename="bitmap.svg"
   inkscape:export-xdpi="96"
   inkscape:export-ydpi="96"
   xmlns:inkscape="http://www.inkscape.org/namespaces/inkscape"
   xmlns:sodipodi="http://sodipodi.sourceforge.net/DTD/sodipodi-0.dtd"
   xmlns="http://www.w3.org/2000/svg"
   xmlns:svg="http://www.w3.org/2000/svg">
  <sodipodi:namedview
     id="namedview7"
     pagecolor="#ffffff"
     bordercolor="#000000"
     borderopacity="0.25"
     inkscape:showpageshadow="2"
     inkscape:pageopacity="0"
     inkscape:pagecheckerboard="0"
     inkscape:deskcolor="#d1d1d1"
     inkscape:document-units="px"
     showgrid="false" />
  <defs
     id="defs2" />
  <g
     inkscape:label="Layer 1"
     inkscape:groupmode="layer"
     id="layer1">
    <rect
       style="fill:#ffffff;stroke-width:0.264583"
       id="rect958"
       width="241.92847"
       height="174.87856"
       x="-65.714554"
       y="-17.490383" />
    <path
       d="m 26.864492,112.22997 c 13.291743,0 22.03152,-9.01289 22.03152,-21.849434 0,-13.018626 -8.648737,-21.758402 -22.03152,-21.758402 H 0.55412367 V 135.17189 H 12.207159 v -22.94192 z m -2.27584,-33.229352 c 7.738344,0 12.108232,4.005731 12.108232,11.288878 0,7.283147 -4.278849,11.561994 -12.290311,11.561994 H 12.207302 V 79.000618 Z"
       style="font-weight:bold;font-size:3.175px;font-family:Satoshi;-inkscape-font-specification:'Satoshi Bold';stroke-width:7.5866"
       id="path189" />
    <path
       d="m 68.651519,135.22504 c 7.010029,0 13.109665,-3.18638 15.021491,-7.82939 l 0.819497,6.64588 h 9.741209 v -27.31181 c 0,-12.472384 -7.465225,-19.027216 -19.573457,-19.027216 -12.199271,0 -20.210733,6.372753 -20.210733,16.113966 h 9.468091 c 0,-4.734049 3.641573,-7.465229 10.196406,-7.465229 5.644439,0 9.286012,2.45792 9.286012,8.557699 v 1.00129 l -13.473822,1.00157 c -10.651602,0.8195 -16.660199,6.0086 -16.660199,14.29318 0,8.46666 5.826518,14.02006 15.385648,14.02006 z m 3.641574,-8.37562 c -5.007164,0 -7.738344,-2.00287 -7.738344,-6.09964 0,-3.64157 2.640284,-5.91755 9.55913,-6.55483 l 9.377052,-0.72831 v 2.36702 c 0,6.91899 -4.369888,11.01576 -11.197838,11.01576 z"
       style="font-weight:bold;font-size:3.175px;font-family:Satoshi;-inkscape-font-specification:'Satoshi Bold';stroke-width:7.5866"
       id="path191" />
    <path
       d="m 120.21466,135.134 c 8.12931,0 14.96529,-6.65124 14.96529,-14.59577 0,-8.12931 -6.83598,-14.78055 -14.96529,-14.78055 -8.12929,0 -14.96529,6.65124 -14.96529,14.78055 0,7.94453 6.836,14.59577 14.96529,14.59577 z"
       style="font-weight:bold;font-size:3.175px;font-family:Satoshi;-inkscape-font-specification:'Satoshi Bold';stroke-width:15.3964"
       id="path193" />
  </g>
</svg>
