<?xml version="1.0" encoding="UTF-8" standalone="no"?>
<!-- Created with Inkscape (http://www.inkscape.org/) -->

<svg
   width="512"
   height="512"
   viewBox="0 0 135.46666 135.46667"
   version="1.1"
   id="svg5"
   inkscape:export-filename="bitmap.svg"
   inkscape:export-xdpi="96"
   inkscape:export-ydpi="96"
   inkscape:version="1.2.2 (b0a8486541, 2022-12-01)"
   sodipodi:docname="drawing.svg"
   xmlns:inkscape="http://www.inkscape.org/namespaces/inkscape"
   xmlns:sodipodi="http://sodipodi.sourceforge.net/DTD/sodipodi-0.dtd"
   xmlns="http://www.w3.org/2000/svg"
   xmlns:svg="http://www.w3.org/2000/svg">
  <sodipodi:namedview
     id="namedview7"
     pagecolor="#ffffff"
     bordercolor="#000000"
     borderopacity="0.25"
     inkscape:showpageshadow="2"
     inkscape:pageopacity="0"
     inkscape:pagecheckerboard="0"
     inkscape:deskcolor="#d1d1d1"
     inkscape:document-units="px"
     showgrid="false"
     inkscape:zoom="0.46858866"
     inkscape:cx="12.804407"
     inkscape:cy="256.08814"
     inkscape:window-width="1366"
     inkscape:window-height="696"
     inkscape:window-x="0"
     inkscape:window-y="0"
     inkscape:window-maximized="1"
     inkscape:current-layer="layer1" />
  <defs
     id="defs2" />
  <g
     inkscape:label="Layer 1"
     inkscape:groupmode="layer"
     id="layer1">
    <rect
       style="fill:#ffffff;stroke-width:0.264583"
       id="rect958"
       width="241.92847"
       height="174.87856"
       x="-60.163799"
       y="-21.788586" />
    <path
       d="m 26.817777,76.324585 c 13.291743,0 22.03152,-9.012894 22.03152,-21.84944 0,-13.018626 -8.648737,-21.758402 -22.03152,-21.758402 H 0.50740851 V 99.266498 H 12.160444 V 76.324585 Z m -2.27584,-33.229358 c 7.738344,0 12.108232,4.005731 12.108232,11.288878 0,7.283147 -4.278849,11.561996 -12.290311,11.561996 H 12.160587 V 43.095227 Z"
       style="font-weight:bold;font-size:3.175px;font-family:Satoshi;-inkscape-font-specification:'Satoshi Bold';stroke-width:7.5866"
       id="path189" />
    <path
       d="m 68.604804,100.45001 c 7.010029,0 13.109665,-3.186377 15.021491,-7.829383 l 0.819497,6.645871 h 9.741209 V 71.954697 c 0,-12.472389 -7.465225,-19.027221 -19.573457,-19.027221 -12.199271,0 -20.210733,6.372753 -20.210733,16.113962 h 9.468091 c 0,-4.734045 3.641573,-7.465225 10.196406,-7.465225 5.644439,0 9.286012,2.457919 9.286012,8.557698 V 71.1352 l -13.473822,1.001576 c -10.651602,0.819497 -16.660199,6.008596 -16.660199,14.293176 0,8.466658 5.826518,14.020058 15.385648,14.020058 z m 3.641574,-8.375619 c -5.007164,0 -7.738344,-2.002866 -7.738344,-6.099636 0,-3.641573 2.640284,-5.917557 9.55913,-6.554832 l 9.377052,-0.728315 v 2.367023 c 0,6.91899 -4.369888,11.01576 -11.197838,11.01576 z"
       style="font-weight:bold;font-size:3.175px;font-family:Satoshi;-inkscape-font-specification:'Satoshi Bold';stroke-width:7.5866"
       id="path191" />
    <path
       d="m 120.16794,100.35897 c 8.12931,0 14.96529,-6.651233 14.96529,-14.59577 0,-8.129311 -6.83598,-14.780545 -14.96529,-14.780545 -8.12929,0 -14.96529,6.651234 -14.96529,14.780545 0,7.944537 6.836,14.59577 14.96529,14.59577 z"
       style="font-weight:bold;font-size:3.175px;font-family:Satoshi;-inkscape-font-specification:'Satoshi Bold';stroke-width:15.3964"
       id="path193" />
  </g>
</svg>
